<?xml version="1.0" encoding="utf-8"?>
<!-- Generator: Adobe Illustrator 19.2.1, SVG Export Plug-In . SVG Version: 6.00 Build 0)  -->
<svg version="1.1" id="layer" xmlns="http://www.w3.org/2000/svg" xmlns:xlink="http://www.w3.org/1999/xlink" x="0px" y="0px"
	 viewBox="0 0 652 652" style="enable-background:new 0 0 652 652;" xml:space="preserve">
<path d="M22,404.2V238.7h61.4c14.9,0,26.9,3.2,35.8,9.7c8.8,6.6,13.3,17.7,13.4,33.3c0.3,15.4-5.8,26.7-18.3,33.9v0.4
	c22.9,4.1,34.2,18.1,33.8,42.1c-0.3,17-6.4,29-18.2,36c-11.7,6.9-25.3,10.2-40.8,10.1H22z M64.9,303.8h5c6.3,0.1,11.9-0.8,16.8-2.9
	c4.9-2,7.4-6.4,7.6-13.2c-0.1-7.5-2.9-12.1-8.3-13.9c-5.4-1.6-11.4-2.4-17.9-2.3h-3.3V303.8z M64.9,371.4h5.8
	c3.5,0,7.2-0.1,11.4-0.4c3.9-0.1,7.7-0.8,11.4-1.9c3.9-1,6.9-2.8,9.2-5.2c2.5-2.3,3.6-5.8,3.6-10.1c0-5-1.2-8.9-3.6-11.8
	c-2.2-2.6-5.3-4.3-9.2-5c-3.9-1-7.8-1.6-11.8-1.5c-4.3,0.1-8.3,0.2-12.2,0.2h-4.6V371.4z M201.9,375.5l-11,28.7h-44.2l61.6-165.5
	h45.5l60.4,165.5h-44.4l-10.5-28.7H201.9z M231,289.8h-0.4l-17.2,52.9H248L231,289.8z M369.4,367.7h50v36.5h-92.9V238.7h42.9V367.7z
	 M569.8,404.2h-52.7l-39.8-63.7h-0.5v63.7H434V238.7h63.6c16.7,0,30.2,4,40.8,12.1c10.6,8.2,16,21.1,16.1,38.8
	c0,11.6-3,21.7-8.9,30.3c-5.9,8.5-14.6,13.9-26.1,16.4L569.8,404.2z M477,312.9h4.2c3.7,0,7.3-0.3,10.9-0.9c3.3-0.4,6.5-1.4,9.5-2.9
	c3-1.5,5.3-3.6,7-6.4c1.7-2.7,2.7-6.2,2.7-10.6c0-4.6-0.9-8.3-2.7-11.1c-1.7-2.8-4.1-4.9-7-6.1c-4.6-2.3-9.6-3.5-14.7-3.6H477V312.9
	z M597.1,353c7.3,0.1,13.2,2.6,17.6,7.4c4.7,4.7,7.2,10.8,7.3,18.2c-0.1,7.2-2.6,13.2-7.3,18c-4.5,5-10.3,7.6-17.6,7.7
	c-6.9-0.1-12.8-2.7-17.4-7.7c-5-4.8-7.4-10.8-7.4-18c0-7.4,2.5-13.5,7.4-18.2C584.4,355.6,590.2,353.1,597.1,353L597.1,353z
	 M597.1,353"/>
</svg>
